# MagicaVoxel @ Ephtracy

# group
g lava

# material
mtllib lava.mtl
usemtl palette

# normals
vn -1 0 0
vn 1 0 0
vn 0 0 1
vn 0 0 -1
vn 0 -1 0
vn 0 1 0

# texcoords
vt 0.208984 0.5
vt 0.990234 0.5

# verts
v -1.5 0 10
v -1.5 0 -10
v -1.5 1 10
v -1.5 1 8
v -1.5 1 6
v -1.5 1 -0
v -1.5 1 -1
v -1.5 1 -2
v -1.5 1 -9
v -1.5 1 -10
v -1.5 2 8
v -1.5 2 6
v -1.5 2 -0
v -1.5 2 -1
v -1.5 2 -2
v -1.5 2 -5
v -1.5 3 -5
v -1.5 3 -9
v -0.5 1 -9
v -0.5 1 -10
v -0.5 2 -9
v -0.5 2 -10
v -0.5 1 8
v -0.5 1 6
v -0.5 1 -0
v -0.5 1 -2
v -0.5 1 -3
v -0.5 1 -4
v -0.5 1 -9
v -0.5 2 8
v -0.5 2 6
v -0.5 2 -0
v -0.5 2 -2
v -0.5 2 -3
v -0.5 2 -4
v -0.5 2 -5
v -0.5 2 -9
v -0.5 3 -5
v -0.5 3 -9
v 0.5 0 10
v 0.5 0 3
v 0.5 0 -3
v 0.5 0 -8
v 0.5 1 10
v 0.5 1 3
v 0.5 1 -1
v 0.5 1 -2
v 0.5 1 -3
v 0.5 1 -4
v 0.5 1 -8
v 0.5 1 -9
v 0.5 1 -10
v 0.5 2 -1
v 0.5 2 -2
v 0.5 2 -3
v 0.5 2 -4
v 0.5 2 -9
v 0.5 2 -10
v 1.5 0 3
v 1.5 0 -3
v 1.5 0 -8
v 1.5 0 -10
v 1.5 1 3
v 1.5 1 -3
v 1.5 1 -8
v 1.5 1 -10
v -1.5 0 10
v -1.5 1 10
v 0.5 0 10
v 0.5 1 10
v -1.5 1 8
v -1.5 2 8
v -0.5 1 8
v -0.5 2 8
v 0.5 0 3
v 0.5 1 3
v 1.5 0 3
v 1.5 1 3
v -1.5 1 -1
v -1.5 2 -1
v 0.5 1 -1
v 0.5 2 -1
v -0.5 1 -3
v -0.5 2 -3
v 0.5 1 -3
v 0.5 2 -3
v -1.5 2 -5
v -1.5 3 -5
v -0.5 2 -5
v -0.5 3 -5
v 0.5 0 -8
v 0.5 1 -8
v 1.5 0 -8
v 1.5 1 -8
v -0.5 1 -9
v -0.5 2 -9
v 0.5 1 -9
v 0.5 2 -9
v -1.5 1 -0
v -1.5 2 -0
v -0.5 1 -0
v -0.5 2 -0
v -0.5 1 -2
v -0.5 2 -2
v 0.5 1 -2
v 0.5 2 -2
v 0.5 0 -3
v 0.5 1 -3
v 1.5 0 -3
v 1.5 1 -3
v -0.5 1 -4
v -0.5 2 -4
v 0.5 1 -4
v 0.5 2 -4
v -1.5 1 -9
v -1.5 3 -9
v -0.5 1 -9
v -0.5 2 -9
v -0.5 3 -9
v -1.5 0 -10
v -1.5 1 -10
v -0.5 1 -10
v -0.5 2 -10
v 0.5 0 -10
v 0.5 1 -10
v 0.5 2 -10
v 1.5 0 -10
v 1.5 1 -10
v -1.5 0 10
v 0.5 0 10
v 0.5 0 3
v 1.5 0 3
v 0.5 0 -3
v 1.5 0 -3
v 0.5 0 -8
v 1.5 0 -8
v -1.5 0 -10
v 0.5 0 -10
v 1.5 0 -10
v -1.5 1 10
v 0.5 1 10
v -1.5 1 8
v -0.5 1 8
v -0.5 1 6
v 0.5 1 3
v 1.5 1 3
v -1.5 1 -0
v -0.5 1 -0
v -1.5 1 -1
v 0.5 1 -1
v -0.5 1 -2
v 0.5 1 -2
v -0.5 1 -3
v 0.5 1 -3
v 1.5 1 -3
v -0.5 1 -4
v 0.5 1 -4
v 0.5 1 -8
v 1.5 1 -8
v -1.5 1 -9
v -0.5 1 -9
v 0.5 1 -9
v -1.5 1 -10
v -0.5 1 -10
v 0.5 1 -10
v 1.5 1 -10
v -1.5 2 8
v -0.5 2 8
v -1.5 2 6
v -0.5 2 6
v -1.5 2 -0
v -0.5 2 -0
v -1.5 2 -1
v 0.5 2 -1
v -1.5 2 -2
v -0.5 2 -2
v 0.5 2 -2
v -0.5 2 -3
v 0.5 2 -3
v -0.5 2 -4
v 0.5 2 -4
v -1.5 2 -5
v -0.5 2 -5
v -0.5 2 -9
v 0.5 2 -9
v -0.5 2 -10
v 0.5 2 -10
v -1.5 3 -5
v -0.5 3 -5
v -1.5 3 -9
v -0.5 3 -9

# faces
f 3/2/1 2/2/1 1/2/1
f 4/2/1 2/2/1 3/2/1
f 5/2/1 2/2/1 4/2/1
f 6/2/1 2/2/1 5/2/1
f 7/2/1 2/2/1 6/2/1
f 8/2/1 2/2/1 7/2/1
f 9/2/1 2/2/1 8/2/1
f 10/2/1 2/2/1 9/2/1
f 11/1/1 5/1/1 4/1/1
f 12/2/1 6/2/1 5/2/1
f 12/1/1 5/1/1 11/1/1
f 13/2/1 6/2/1 12/2/1
f 14/1/1 8/1/1 7/1/1
f 15/2/1 9/2/1 8/2/1
f 15/1/1 8/1/1 14/1/1
f 16/2/1 9/2/1 15/2/1
f 17/2/1 9/2/1 16/2/1
f 18/2/1 9/2/1 17/2/1
f 21/1/1 20/1/1 19/1/1
f 22/1/1 20/1/1 21/1/1
f 23/1/2 24/1/2 30/1/2
f 24/2/2 25/2/2 31/2/2
f 30/1/2 24/1/2 31/1/2
f 31/2/2 25/2/2 32/2/2
f 26/2/2 27/2/2 33/2/2
f 33/2/2 27/2/2 34/2/2
f 28/2/2 29/2/2 35/2/2
f 35/2/2 29/2/2 36/2/2
f 36/2/2 29/2/2 37/2/2
f 36/2/2 37/2/2 38/2/2
f 38/2/2 37/2/2 39/2/2
f 40/2/2 41/2/2 44/2/2
f 44/2/2 41/2/2 45/2/2
f 42/2/2 43/2/2 48/2/2
f 48/2/2 43/2/2 49/2/2
f 49/2/2 43/2/2 50/2/2
f 46/1/2 47/1/2 53/1/2
f 53/1/2 47/1/2 54/1/2
f 48/1/2 49/1/2 55/1/2
f 55/1/2 49/1/2 56/1/2
f 51/1/2 52/1/2 57/1/2
f 57/1/2 52/1/2 58/1/2
f 59/1/2 60/1/2 63/1/2
f 63/1/2 60/1/2 64/1/2
f 61/1/2 62/1/2 65/1/2
f 65/1/2 62/1/2 66/1/2
f 69/2/3 68/2/3 67/2/3
f 70/2/3 68/2/3 69/2/3
f 73/1/3 72/1/3 71/1/3
f 74/1/3 72/1/3 73/1/3
f 77/1/3 76/1/3 75/1/3
f 78/1/3 76/1/3 77/1/3
f 81/1/3 80/1/3 79/1/3
f 82/1/3 80/1/3 81/1/3
f 85/1/3 84/1/3 83/1/3
f 86/1/3 84/1/3 85/1/3
f 89/2/3 88/2/3 87/2/3
f 90/2/3 88/2/3 89/2/3
f 93/1/3 92/1/3 91/1/3
f 94/1/3 92/1/3 93/1/3
f 97/1/3 96/1/3 95/1/3
f 98/1/3 96/1/3 97/1/3
f 99/2/4 100/2/4 101/2/4
f 101/2/4 100/2/4 102/2/4
f 103/1/4 104/1/4 105/1/4
f 105/1/4 104/1/4 106/1/4
f 107/1/4 108/1/4 109/1/4
f 109/1/4 108/1/4 110/1/4
f 111/1/4 112/1/4 113/1/4
f 113/1/4 112/1/4 114/1/4
f 115/2/4 116/2/4 117/2/4
f 117/2/4 116/2/4 118/2/4
f 118/2/4 116/2/4 119/2/4
f 120/2/4 121/2/4 122/2/4
f 120/2/4 122/2/4 124/2/4
f 122/1/4 123/1/4 125/1/4
f 124/2/4 122/2/4 125/2/4
f 125/1/4 123/1/4 126/1/4
f 124/1/4 125/1/4 127/1/4
f 127/1/4 125/1/4 128/1/4
f 131/2/5 130/2/5 129/2/5
f 133/2/5 131/2/5 129/2/5
f 133/1/5 132/1/5 131/1/5
f 134/1/5 132/1/5 133/1/5
f 135/2/5 133/2/5 129/2/5
f 137/2/5 135/2/5 129/2/5
f 138/1/5 136/1/5 135/1/5
f 138/2/5 135/2/5 137/2/5
f 139/1/5 136/1/5 138/1/5
f 140/2/6 141/2/6 142/2/6
f 142/2/6 141/2/6 143/2/6
f 143/2/6 141/2/6 144/2/6
f 144/2/6 141/2/6 145/2/6
f 144/2/6 145/2/6 148/2/6
f 147/2/6 148/2/6 149/2/6
f 145/1/6 146/1/6 150/1/6
f 149/2/6 148/2/6 150/2/6
f 148/2/6 145/2/6 150/2/6
f 150/1/6 146/1/6 152/1/6
f 151/2/6 152/2/6 153/2/6
f 152/1/6 146/1/6 154/1/6
f 153/2/6 152/2/6 154/2/6
f 154/1/6 146/1/6 155/1/6
f 156/2/6 157/2/6 158/2/6
f 156/2/6 158/2/6 161/2/6
f 158/1/6 159/1/6 162/1/6
f 161/2/6 158/2/6 162/2/6
f 160/2/6 161/2/6 163/2/6
f 163/2/6 161/2/6 164/2/6
f 162/1/6 159/1/6 165/1/6
f 165/1/6 159/1/6 166/1/6
f 167/1/6 168/1/6 169/1/6
f 169/1/6 168/1/6 170/1/6
f 169/2/6 170/2/6 171/2/6
f 171/2/6 170/2/6 172/2/6
f 173/1/6 174/1/6 175/1/6
f 175/1/6 174/1/6 176/1/6
f 176/1/6 174/1/6 177/1/6
f 175/2/6 176/2/6 178/2/6
f 175/2/6 178/2/6 180/2/6
f 178/1/6 179/1/6 180/1/6
f 180/1/6 179/1/6 181/1/6
f 175/2/6 180/2/6 182/2/6
f 182/2/6 180/2/6 183/2/6
f 184/1/6 185/1/6 186/1/6
f 186/1/6 185/1/6 187/1/6
f 188/2/6 189/2/6 190/2/6
f 190/2/6 189/2/6 191/2/6
